<?xml version="1.0" encoding="iso-8859-1"?>
<!-- Uploaded to: SVG Repo, www.svgrepo.com, Generator: SVG Repo Mixer Tools -->
<svg fill="#000000" height="128px" width="128px" version="1.1" id="Layer_1" xmlns="http://www.w3.org/2000/svg" xmlns:xlink="http://www.w3.org/1999/xlink" 
	 viewBox="0 0 512 512" xml:space="preserve">
<g transform="translate(1 1)">
	<g>
		<g>
			<path d="M229.4,186.733h204.8c5.12,0,8.533-3.413,8.533-8.533V41.667c0-5.12-3.413-8.533-8.533-8.533H229.4
				c-5.12,0-8.533,3.413-8.533,8.533V178.2C220.867,183.32,224.28,186.733,229.4,186.733z M237.933,50.2h187.733v119.467H237.933
				V50.2z"/>
			<path d="M306.2,101.4h51.2c5.12,0,8.533-3.413,8.533-8.533c0-5.12-3.413-8.533-8.533-8.533h-51.2
				c-5.12,0-8.533,3.413-8.533,8.533C297.667,97.987,301.08,101.4,306.2,101.4z"/>
			<path d="M383,118.467H280.6c-5.12,0-8.533,3.413-8.533,8.533s3.413,8.533,8.533,8.533H383c5.12,0,8.533-3.413,8.533-8.533
				S388.12,118.467,383,118.467z"/>
			<path d="M203.8,476.867h256c5.12,0,8.533-3.413,8.533-8.533s-3.413-8.533-8.533-8.533h-256c-5.12,0-8.533,3.413-8.533,8.533
				S198.68,476.867,203.8,476.867z"/>
			<path d="M502.467-1h-307.2C171.373-1,152.6,17.773,152.6,41.667v184.788c-8.264,2.344-15.863,4.523-22.187,6.358
				c-12.8,3.413-24.747,9.387-34.987,17.92c-4.267,3.413-9.387,6.827-14.507,9.387c-13.653,7.68-24.747,19.627-29.867,34.987
				c0,1.707-0.853,4.267-1.707,5.973L4.973,315.587C1.56,316.44-1,319.853-1,323.267v93.867c0,5.12,3.413,8.533,8.533,8.533h11.093
				c21.333,0,56.32,5.973,76.8,11.947c11.093,3.413,22.187,5.12,33.28,5.12H152.6v25.6c0,23.893,18.773,42.667,42.667,42.667h307.2
				c5.12,0,8.533-3.413,8.533-8.533V434.2V7.533C511,2.413,507.587-1,502.467-1z M169.667,41.667c0-14.507,11.093-25.6,25.6-25.6
				h298.667v409.6H195.267c-0.615,0-1.229,0.016-1.843,0.045c-8.953,0.365-17.12,3.371-23.757,8.285V334.36
				c0-2.24,0.173-4.44,0.51-6.585c0.421-2.681,1.097-5.277,2.009-7.757c0.912-2.48,2.059-4.845,3.423-7.065
				c1.091-1.776,2.32-3.46,3.677-5.036c0.339-0.394,0.687-0.781,1.042-1.162c4.618-4.945,10.566-8.715,17.499-10.795l41.813-12.8
				c6.4-2.133,12.373-5.333,17.707-9.387c5.333-4.053,10.027-8.96,13.867-14.507c1.44-2.4,2.61-4.89,3.504-7.431
				c0.596-1.694,1.07-3.41,1.42-5.137c0.35-1.727,0.575-3.465,0.675-5.202c0.05-0.869,0.068-1.737,0.055-2.604
				c-0.107-6.933-2.24-13.76-6.507-19.733c-0.001-0.002-0.003-0.004-0.004-0.006c-0.463-0.694-0.949-1.36-1.45-2.007
				c-0.346-0.452-0.709-0.881-1.072-1.311c-0.104-0.121-0.204-0.246-0.309-0.366c-3.189-3.685-6.946-6.543-11.081-8.519
				c-0.774-0.766-1.618-1.533-3.151-2.299c-6.827-2.56-14.507-2.56-21.333-0.853c-11.947,3.413-25.6,6.827-39.253,10.24
				c-0.793,0.264-1.586,0.775-2.329,1.455c-6.779,1.759-13.744,3.565-20.711,5.371V41.667z M246.467,225.133
				c0,5.973-8.533,12.8-21.333,12.8c-9.387,0-17.067-4.267-19.627-8.533c0.949-0.292,1.885-0.57,2.822-0.85
				c10.787-2.947,20.78-5.626,28.751-7.683c1.169-0.212,2.297-0.332,3.385-0.369c1.83-0.043,3.592,0.177,5.256,0.599
				C246.458,222.648,246.467,223.508,246.467,225.133z M127.853,425.667c-9.387,0-18.773-1.707-28.16-4.267
				c-21.333-5.973-57.173-12.8-81.067-12.8h-2.56v-79.36l39.253-12.8c7.68-2.56,9.387-7.68,11.947-16.213
				C70.68,289.133,78.36,280.6,88.6,275.48c5.973-3.413,11.947-6.827,17.067-11.093c9.387-6.827,18.773-11.947,29.867-15.36
				c13.715-3.982,33.393-9.569,52.852-14.978C193.15,246.467,207.717,255,225.133,255c15.45,0,28.656-6.716,34.768-17.225
				c0.225,3.534-0.622,7.393-3.195,11.252c-5.12,8.533-12.8,14.507-22.187,17.067l-41.813,12.8
				c-23.893,7.68-40.107,29.867-40.107,54.613v92.16H127.853z M493.933,493.933H195.267c-14.507,0-25.6-11.093-25.6-25.6
				c0-14.507,11.093-25.6,25.6-25.6h298.667V493.933z"/>
		</g>
	</g>
</g>
</svg>